# xmcd CD database file
#
# Track frame offsets:
#	150
#	13884
#	28558
#	44574
#	57231
#	73329
#	90075
#	108529
#	122677
#	139773
#	156124
#	170925
#	186808
#
# Disc length: 2808 seconds
#
# Revision: 2
# Processed by: cddbd v1.5.1PL0 Copyright (c) Steve Scherf et al.
# Submitted via: FreeDB 11.5
#
DISCID=b70af60d
DTITLE=SP-Just-Frost - 04 bliver et fedt år
DYEAR=2004
DGENRE=Funk
TTITLE0=Superstar
TTITLE1=Vinden i dit hår
TTITLE2=Bryggen
TTITLE3=Den første gang
TTITLE4=Morgenmad på D'Angleterre
TTITLE5=Økomand
TTITLE6=04 bliver et fedt år
TTITLE7=Livet i byen
TTITLE8=Charmetrolden
TTITLE9=Lys forude
TTITLE10=Kongesangen
TTITLE11=Det er skidt
TTITLE12=Vesterbro
EXTD=
EXTT0=
EXTT1=
EXTT2=
EXTT3=
EXTT4=
EXTT5=
EXTT6=
EXTT7=
EXTT8=
EXTT9=
EXTT10=
EXTT11=
EXTT12=
PLAYORDER=
